<svg xmlns="http://www.w3.org/2000/svg" viewBox="0 0 1950 1080"><defs><style>.cls-1{fill:#720c17;}</style></defs><g id="Isolation_Mode" data-name="Isolation Mode"><path class="cls-1" d="M398.72,578.88l-2.28,4.92c-6.26,13.58-14.93,23.65-26.56,30.79s-25.74,10.7-42.16,10.7c-15.79,0-30.09-3.68-42.51-11a76.83,76.83,0,0,1-29.29-31.12c-6.38-12.07-10-26.17-10.67-42h-17c.74,18.66,5,35.41,12.65,49.91a93.58,93.58,0,0,0,35.71,37.82c15.06,8.83,32.24,13.31,51.08,13.31,19.61,0,36.78-4.45,51-13.23a84.54,84.54,0,0,0,30.64-33.2H430a101.53,101.53,0,0,1-35.75,39.56c-18.76,12-41.12,18.14-66.49,18.14-21.5,0-41.3-5.1-58.84-15.14a110.54,110.54,0,0,1-41.66-42C218,580.07,212.87,561.53,212,541.21h-17c.84,23.32,6.7,44.66,17.42,63.53a127.39,127.39,0,0,0,48,48.36c20.15,11.53,42.77,17.36,67.27,17.36,28.66,0,54.11-7,75.64-20.8,21.69-13.91,37.71-33.83,47.61-59.24l4.5-11.54ZM451,480c-9.9-25.63-25.91-45.75-47.59-59.78s-47-21-75.67-21c-24.5,0-47.13,5.92-67.3,17.57a128.09,128.09,0,0,0-27.18,21,132,132,0,0,0-20.78,27.71,137.42,137.42,0,0,0-17.1,58.19h17a125.61,125.61,0,0,1,3.38-20.92,115.46,115.46,0,0,1,11.47-28.93,111.52,111.52,0,0,1,41.69-42.36c17.54-10.15,37.32-15.3,58.8-15.3,25.34,0,47.71,6.15,66.46,18.28A102.45,102.45,0,0,1,430,474.57H409.4a85.76,85.76,0,0,0-30.59-33.36c-14.3-8.9-31.48-13.42-51.09-13.42-18.84,0-36,4.48-51.08,13.31a93.64,93.64,0,0,0-35.71,37.82C234,492,229.88,507,228.6,523.68h17c1.21-13.8,4.66-26.16,10.31-36.84a76.83,76.83,0,0,1,29.29-31.12c12.42-7.29,26.72-11,42.51-11,16.38,0,30.56,3.64,42.12,10.85s20.34,17.41,26.6,31l2.28,4.94h56.71Z"/><path class="cls-1" d="M506.39,541.21V667.73l16.94.59V559H633.17V668.32h16.91V541.21Zm159.28,0v108.4h0v18.71h17V541.21Zm-191.79,0V666.57l16.95.6v-126Zm0-138.78V523.68h16.95V402.43Zm191.76,0v15.2h0v106h17V402.43Zm-32.47,0v104H523.33v-104H506.39v121H650.08v-121Z"/><polygon class="cls-1" points="813.43 427.19 778.9 523.68 796.89 523.68 813.43 477.5 829.97 523.68 847.97 523.68 813.43 427.19"/><polygon class="cls-1" points="813.43 427.19 778.9 523.68 796.89 523.68 813.43 477.5 829.97 523.68 847.97 523.68 813.43 427.19"/><polygon class="cls-1" points="813.43 427.19 778.9 523.68 796.89 523.68 813.43 477.5 829.97 523.68 847.97 523.68 813.43 427.19"/><polygon class="cls-1" points="813.43 427.19 778.9 523.68 796.89 523.68 813.43 477.5 829.97 523.68 847.97 523.68 813.43 427.19"/><polygon class="cls-1" points="838.31 403.85 788.92 403.85 745.34 523.68 763.39 523.68 800.8 420.81 826.42 420.81 863.68 523.68 881.71 523.68 838.31 403.85"/><polygon class="cls-1" points="813.43 427.19 778.9 523.68 796.89 523.68 813.43 477.5 829.97 523.68 847.97 523.68 813.43 427.19"/><polygon class="cls-1" points="813.43 427.19 778.9 523.68 796.89 523.68 813.43 477.5 829.97 523.68 847.97 523.68 813.43 427.19"/><polygon class="cls-1" points="813.43 427.19 778.9 523.68 796.89 523.68 813.43 477.5 829.97 523.68 847.97 523.68 813.43 427.19"/><polygon class="cls-1" points="813.43 427.19 778.9 523.68 796.89 523.68 813.43 477.5 829.97 523.68 847.97 523.68 813.43 427.19"/><polygon class="cls-1" points="813.43 427.19 778.9 523.68 796.89 523.68 813.43 477.5 829.97 523.68 847.97 523.68 813.43 427.19"/><path class="cls-1" d="M975.68,402.43V523.68h16.94V402.43Zm-32.5,0V523.68h16.94V402.43Zm187.5,0V523.68h17V402.43Zm-32.51,0V523.68h17V402.43Zm0,138.78v27.21c0,19.69-4.6,34.23-13.72,43.26-9.28,9.16-22,13.61-38.86,13.61-17.13,0-30-4.45-39.23-13.61-9.11-9-13.74-23.57-13.74-43.26V541.21H975.68v27.21c0,24.39,6.31,43,18.77,55.31s29.63,18.52,51.14,18.52c21.26,0,38.34-6.24,50.78-18.52s18.77-30.92,18.77-55.31V541.21Z"/><path class="cls-1" d="M1147.64,541.21v26.86c0,22.14-4.61,41.19-13.67,56.61-1,1.78-2.15,3.52-3.29,5.2a88.22,88.22,0,0,1-15.54,17.54,85.32,85.32,0,0,1-18.52,12.2c-15.25,7.42-32.54,11.21-51.4,11.21s-36.14-3.79-51.39-11.21a85.57,85.57,0,0,1-18.15-11.88,87.62,87.62,0,0,1-15.56-17.54c-1.21-1.81-2.38-3.67-3.48-5.58-8.94-15.4-13.46-34.42-13.46-56.55V541.21h16.94v26.86c0,19.09,3.77,35.27,11.18,48.06,1.39,2.36,2.84,4.62,4.38,6.74a67.14,67.14,0,0,0,25.58,21.5c12.92,6.31,27.72,9.5,44,9.5s31-3.19,44-9.5a68,68,0,0,0,26-21.85c1.48-2,2.89-4.19,4.22-6.45,7.51-12.77,11.32-28.92,11.32-48V541.21Z"/><path class="cls-1" d="M1176,541.21V668.32H1193V541.21Zm32.5,0V651.36h0v17h17V557.92h87.87V541.21Z"/><polygon class="cls-1" points="1333.72 402.44 1333.72 417.42 1192.98 417.42 1192.98 523.68 1176.04 523.68 1176.04 402.44 1333.72 402.44"/><polygon class="cls-1" points="1208.54 430.59 1333.72 430.59 1333.72 445.82 1225.49 445.82 1225.49 507.53 1313.36 507.53 1313.36 523.68 1208.54 523.68 1208.54 430.59"/><path class="cls-1" d="M1379.62,541.21V651.36h-.21v17h17.16V557.92h87.87V541.21Zm-32.5,0V668.32h16.73V541.21Z"/><polygon class="cls-1" points="1504.78 402.44 1504.78 417.85 1363.85 417.85 1363.85 430.59 1364.06 430.59 1364.06 523.68 1347.12 523.68 1347.12 402.44 1504.78 402.44"/><polygon class="cls-1" points="1379.62 430.59 1504.78 430.59 1504.78 445.82 1396.57 445.82 1396.57 507.53 1484.44 507.53 1484.44 523.68 1379.62 523.68 1379.62 430.59"/><path class="cls-1" d="M1570.74,402.43V523.68h16.94V402.43Zm-32.52,0V523.68h17V402.43Zm0,138.78V668.32h17V541.21Zm32.52,0V668.32h16.94V541.21Z"/><path class="cls-1" d="M1670,541.21V668.32h17V541.21Zm32.51,0V668.32h16.94V541.21Zm0-109.57v92h16.94V445.82h67.86V431.64Zm-100.74-29.21v14.72h185.54V402.43Zm0,29.21v14.18H1670v77.86h17v-92Z"/><path class="cls-1" d="M888.13,607H852.72a39.91,39.91,0,0,0-78.57,0H737.86l-6,14.12h42.29a39.91,39.91,0,0,0,78.57,0H895Zm-74.71,36.92a29.9,29.9,0,0,1-29-22.8,30.09,30.09,0,0,1,0-14.12,29.87,29.87,0,0,1,58.05,0,30.09,30.09,0,0,1,0,14.12A30,30,0,0,1,813.42,643.92Z"/><path class="cls-1" d="M832.3,607a20.14,20.14,0,0,0-37.73,0,19.71,19.71,0,0,0-1.28,7,19.23,19.23,0,0,0,1.31,7.08,20.09,20.09,0,0,0,37.66,0,20,20,0,0,0,0-14.12Zm-18.88,17.14A10.07,10.07,0,0,1,803.36,614a10.07,10.07,0,0,1,2.88-7,10.08,10.08,0,1,1,7.18,17.14Z"/><path class="cls-1" d="M813.42,536.85A113.55,113.55,0,0,0,701.18,667.13h17a96.73,96.73,0,1,1,190.51,0h17a115.83,115.83,0,0,0,1.24-16.77A113.64,113.64,0,0,0,813.42,536.85Z"/></g></svg>